<svg width="36" height="36" viewBox="0 0 36 36" fill="none" xmlns="http://www.w3.org/2000/svg">
<path fill-rule="evenodd" clip-rule="evenodd" d="M5.68402 7.99883C3.13579 11.161 1.9481 15.2059 2.38222 19.2438C2.81634 23.2816 4.83671 26.9817 7.99887 29.5299C11.161 32.0781 15.206 33.2658 19.2438 32.8317C23.2817 32.3976 26.9817 30.3772 29.5299 27.215C32.0782 24.0529 33.2659 20.0079 32.8317 15.9701C32.3976 11.9322 30.3772 8.2322 27.2151 5.68397C24.0529 3.13574 20.008 1.94805 15.9701 2.38217C11.9323 2.81629 8.23224 4.83666 5.68402 7.99883ZM31.2332 28.5876C28.321 32.2015 24.0924 34.5105 19.4777 35.0067C14.863 35.5028 10.2402 34.1454 6.62629 31.2332C3.01238 28.3209 0.703385 24.0923 0.207249 19.4776C-0.288888 14.8629 1.06848 10.2401 3.98074 6.62624C6.893 3.01234 11.1216 0.703341 15.7363 0.207203C20.351 -0.288933 24.9738 1.06843 28.5877 3.98069C32.2016 6.89295 34.5106 11.1216 35.0067 15.7362C35.5028 20.3509 34.1455 24.9737 31.2332 28.5876ZM13.6546 24.2547C13.4725 24.4806 13.2083 24.6249 12.9198 24.6559C12.6314 24.6869 12.3425 24.6021 12.1166 24.4201C11.8908 24.238 11.7465 23.9737 11.7154 23.6853C11.6844 23.3969 11.7693 23.108 11.9513 22.8821L19.9027 13.015L13.3005 13.7264C13.0117 13.7574 12.7224 13.6725 12.4963 13.4902C12.2701 13.308 12.1256 13.0434 12.0946 12.7546C12.0635 12.4658 12.1485 12.1765 12.3307 11.9504C12.513 11.7242 12.7776 11.5797 13.0664 11.5487L22.294 10.5566C22.437 10.541 22.5817 10.5538 22.7197 10.5943C22.8578 10.6347 22.9865 10.702 23.0985 10.7923C23.2106 10.8826 23.3037 10.994 23.3725 11.1204C23.4414 11.2467 23.4847 11.3853 23.4999 11.5284L24.492 20.756C24.523 21.0448 24.4381 21.3341 24.2558 21.5602C24.0736 21.7864 23.809 21.9309 23.5202 21.9619C23.2314 21.993 22.9421 21.908 22.716 21.7258C22.4898 21.5435 22.3453 21.2789 22.3143 20.9901L21.606 14.3876L13.6546 24.2547Z" fill="white"/>
</svg>
