<svg width="713" height="258" viewBox="0 0 713 258" fill="none" xmlns="http://www.w3.org/2000/svg">
<path d="M0 211.417V161.967L113.233 0H181.675V158.383H211.058V211.417H181.675V258H120.4V211.417H0ZM124.7 67.3667L64.5 158.383H124.7V67.3667Z" fill="white"/>
<path d="M356.087 174.15C344.158 174.15 332.718 169.393 324.283 160.926C315.848 152.459 311.11 140.975 311.11 129C311.11 117.025 315.848 105.541 324.283 97.0741C332.718 88.6069 344.158 83.85 356.087 83.85C368.016 83.85 379.456 88.6069 387.891 97.0741C396.326 105.541 401.064 117.025 401.064 129C401.064 140.975 396.326 152.459 387.891 160.926C379.456 169.393 368.016 174.15 356.087 174.15ZM451.567 141.513C452.081 137.385 452.467 133.257 452.467 129C452.467 124.743 452.081 120.486 451.567 116.1L478.682 95.073C481.124 93.138 481.766 89.655 480.224 86.817L454.523 42.183C452.981 39.345 449.511 38.184 446.684 39.345L414.686 52.245C408.004 47.214 401.064 42.828 392.968 39.603L388.214 5.41802C387.953 3.89862 387.164 2.52103 385.988 1.52934C384.812 0.537644 383.324 -0.00412509 381.788 2.36518e-05H330.386C327.173 2.36518e-05 324.474 2.32202 323.96 5.41802L319.206 39.603C311.11 42.828 304.17 47.214 297.488 52.245L265.49 39.345C262.663 38.184 259.193 39.345 257.651 42.183L231.95 86.817C230.279 89.655 231.05 93.138 233.492 95.073L260.607 116.1C260.093 120.486 259.707 124.743 259.707 129C259.707 133.257 260.093 137.385 260.607 141.513L233.492 162.927C231.05 164.862 230.279 168.345 231.95 171.183L257.651 215.817C259.193 218.655 262.663 219.687 265.49 218.655L297.488 205.626C304.17 210.786 311.11 215.172 319.206 218.397L323.96 252.582C324.474 255.678 327.173 258 330.386 258H381.788C385.001 258 387.7 255.678 388.214 252.582L392.968 218.397C401.064 215.043 408.004 210.786 414.686 205.626L446.684 218.655C449.511 219.687 452.981 218.655 454.523 215.817L480.224 171.183C481.766 168.345 481.124 164.862 478.682 162.927L451.567 141.513Z" fill="white"/>
<path d="M501.059 211.417V161.967L614.292 0H682.734V158.383H712.117V211.417H682.734V258H621.459V211.417H501.059ZM625.759 67.3667L565.559 158.383H625.759V67.3667Z" fill="white"/>
</svg>
